<svg style="display: none;" aria-hidden="true" xmlns="http://www.w3.org/2000/svg" xmlns:xlink="http://www.w3.org/1999/xlink"><symbol viewBox="0 0 25 24" id="svg-instagram"><path d="M23.9763 7.08968C23.9201 5.82428 23.7139 4.95432 23.4185 4.2005C23.1137 3.40033 22.6449 2.68394 22.0306 2.0884C21.4305 1.4836 20.7038 1.01364 19.9067 0.715958C19.1427 0.422824 18.2706 0.218193 16.9953 0.162401C15.7106 0.101884 15.3028 0.0878906 12.0443 0.0878906C8.78587 0.0878906 8.37802 0.101884 7.09804 0.157676C5.82283 0.213468 4.94614 0.41828 4.18665 0.711233C3.3801 1.01364 2.65816 1.47887 2.05801 2.0884C1.44851 2.68394 0.975095 3.40505 0.674927 4.19595C0.379521 4.95432 0.173304 5.81955 0.11708 7.08495C0.056094 8.35981 0.0419922 8.76453 0.0419922 11.9979C0.0419922 15.2313 0.056094 15.636 0.112318 16.9061C0.168543 18.1715 0.374942 19.0415 0.670349 19.7953C0.975095 20.5955 1.44851 21.3119 2.05801 21.9074C2.65816 22.5122 3.38486 22.9822 4.18189 23.2799C4.94614 23.573 5.81807 23.7776 7.09347 23.8334C8.37325 23.8894 8.78129 23.9032 12.0397 23.9032C15.2982 23.9032 15.706 23.8894 16.986 23.8334C18.2612 23.7776 19.1379 23.573 19.8974 23.2799C21.5103 22.6611 22.7855 21.3957 23.4091 19.7953C23.7043 19.037 23.9107 18.1715 23.967 16.9061C24.0232 15.636 24.0373 15.2313 24.0373 11.9979C24.0373 8.76453 24.0325 8.35981 23.9763 7.08968ZM21.8151 16.8131C21.7634 17.9762 21.5665 18.6042 21.4024 19.023C20.9992 20.0605 20.1694 20.8839 19.1238 21.2841C18.7019 21.4469 18.0643 21.6423 16.8968 21.6933C15.6309 21.7493 15.2513 21.7631 12.0491 21.7631C8.84686 21.7631 8.46244 21.7493 7.20115 21.6933C6.02905 21.6423 5.39612 21.4469 4.97416 21.2841C4.45386 21.0933 3.98025 20.7909 3.59584 20.3954C3.19733 20.0092 2.89258 19.544 2.70028 19.0277C2.53619 18.609 2.33931 17.9762 2.28785 16.8178C2.23144 15.5617 2.21752 15.1848 2.21752 12.0072C2.21752 8.82959 2.23144 8.44813 2.28785 7.19672C2.33931 6.03363 2.53619 5.40556 2.70028 4.98685C2.89258 4.47037 3.19733 4.00059 3.6006 3.61895C3.98959 3.2235 4.45843 2.9211 4.97892 2.73046C5.40088 2.56763 6.03857 2.37227 7.20591 2.32102C8.47178 2.26523 8.85162 2.25123 12.0537 2.25123C15.2606 2.25123 15.6403 2.26523 16.9016 2.32102C18.0737 2.37227 18.7066 2.56763 19.1286 2.73046C19.6489 2.9211 20.1225 3.2235 20.5069 3.61895C20.9054 4.00513 21.2101 4.47037 21.4024 4.98685C21.5665 5.40556 21.7634 6.03818 21.8151 7.19672C21.8713 8.45285 21.8854 8.82959 21.8854 12.0072C21.8854 15.1848 21.8713 15.557 21.8151 16.8131Z"/><path d="M12.0442 5.87988C8.64049 5.87988 5.87891 8.62005 5.87891 11.9977 5.87891 15.3754 8.64049 18.1156 12.0442 18.1156 15.448 18.1156 18.2094 15.3754 18.2094 11.9977 18.2094 8.62005 15.448 5.87988 12.0442 5.87988zM12.0442 15.9662C9.83604 15.9662 8.04492 14.1891 8.04492 11.9977 8.04492 9.8064 9.83604 8.02924 12.0442 8.02924 14.2525 8.02924 16.0434 9.8064 16.0434 11.9977 16.0434 14.1891 14.2525 15.9662 12.0442 15.9662zM19.8934 5.6382C19.8934 6.42692 19.249 7.06644 18.454 7.06644 17.6591 7.06644 17.0146 6.42692 17.0146 5.6382 17.0146 4.8493 17.6591 4.20996 18.454 4.20996 19.249 4.20996 19.8934 4.8493 19.8934 5.6382z"/></symbol><symbol viewBox="0 0 24 24" fill="none" id="svg-quotes"><path fill-rule="evenodd" clip-rule="evenodd" d="M13.9355 22.0302V18.08C13.9355 17.5442 14.3643 17.1101 14.8933 17.1101C16.7808 17.1101 17.8074 15.1497 17.9497 11.2803L14.8933 11.2803C14.3643 11.2803 13.9355 10.8459 13.9355 10.3103V1.96962C13.9355 1.43415 14.3643 1 14.8933 1H23.0424C23.5716 1 24 1.43449 24 1.96962L24 10.3103C24 12.1652 23.8156 13.8674 23.452 15.3701C23.0792 16.9109 22.5069 18.2581 21.7514 19.3744C20.9741 20.5216 20.0018 21.4219 18.8613 22.049C17.7131 22.68 16.3778 23 14.893 23C14.3643 23 13.9355 22.5659 13.9355 22.0302ZM0.957905 17.1101C0.429165 17.1101 0 17.5446 0 18.08V22.0302C0 22.5659 0.429098 23 0.957905 23C2.44213 23 3.77757 22.6799 4.92538 22.049C6.0661 21.4219 7.03893 20.5216 7.81637 19.3744C8.57151 18.2581 9.14384 16.9108 9.51676 15.3697C9.8801 13.8665 10.0645 12.1643 10.0645 10.3103V1.96962C10.0645 1.43415 9.63555 1 9.10668 1H0.95797C0.429232 1 0.000469208 1.43449 0.000469208 1.96962L0.000469208 10.3104C0.000469208 10.8459 0.429165 11.2804 0.95797 11.2804L3.97076 11.2804C3.83061 15.1497 2.81894 17.1101 0.957905 17.1101Z"/></symbol><symbol viewBox="0 0 24 14" id="svg-vk"><path d="M23.8728 12.4734C23.8437 12.4112 23.8166 12.3597 23.7915 12.3184C23.3751 11.5742 22.5793 10.6608 21.4047 9.57784L21.3799 9.55304L21.3675 9.54087L21.3549 9.52841H21.3423C20.8093 9.02414 20.4717 8.68508 20.3303 8.51149C20.0716 8.18081 20.0137 7.84609 20.1551 7.50694C20.2549 7.25071 20.6301 6.70956 21.2797 5.88278C21.6214 5.44461 21.892 5.09343 22.0918 4.82886C23.5331 2.92747 24.158 1.71247 23.9663 1.18335L23.8919 1.05971C23.8418 0.985268 23.7127 0.917169 23.5047 0.855064C23.2962 0.793089 23.0297 0.78284 22.7047 0.824142L19.106 0.84881C19.0477 0.828311 18.9645 0.830222 18.856 0.855064C18.7477 0.879906 18.6935 0.892371 18.6935 0.892371L18.6309 0.923424L18.5812 0.96073C18.5395 0.985398 18.4937 1.02879 18.4436 1.0908C18.3939 1.15261 18.3523 1.22513 18.319 1.30778C17.9272 2.30803 17.4817 3.238 16.9818 4.09766C16.6735 4.61027 16.3904 5.05452 16.1319 5.43067C15.8737 5.80669 15.6571 6.08373 15.4823 6.26132C15.3073 6.43908 15.1493 6.58149 15.0074 6.68906C14.8657 6.79668 14.7575 6.84216 14.6827 6.82552C14.6076 6.80889 14.5369 6.79238 14.47 6.77588C14.3534 6.70144 14.2597 6.60021 14.189 6.47209C14.118 6.34397 14.0702 6.18271 14.0452 5.98845C14.0204 5.79405 14.0057 5.62684 14.0015 5.48626C13.9976 5.34585 13.9994 5.14724 14.0078 4.891C14.0165 4.63463 14.0204 4.46117 14.0204 4.37023C14.0204 4.05606 14.0265 3.71508 14.0389 3.34723C14.0515 2.97937 14.0617 2.68791 14.0703 2.47319C14.0788 2.25826 14.0827 2.03085 14.0827 1.79112C14.0827 1.55138 14.068 1.36337 14.0389 1.22691C14.0102 1.09063 13.9661 0.958341 13.9081 0.830092C13.8496 0.701972 13.7641 0.602864 13.6519 0.532507C13.5395 0.462237 13.3997 0.406472 13.2333 0.365039C12.7917 0.265888 12.2295 0.212251 11.5462 0.203913C9.99683 0.187409 9.00126 0.286691 8.55974 0.501628C8.3848 0.592441 8.22649 0.716521 8.08495 0.873478C7.93496 1.05541 7.91404 1.15469 8.02232 1.17102C8.52223 1.24533 8.87613 1.42309 9.08442 1.70413L9.15948 1.85305C9.21786 1.9605 9.27616 2.15072 9.3345 2.42346C9.39275 2.69621 9.43035 2.99792 9.44689 3.32842C9.48847 3.93197 9.48847 4.44862 9.44689 4.87841C9.40518 5.30837 9.36579 5.64309 9.3282 5.88282C9.2906 6.12256 9.23441 6.31682 9.15948 6.46557C9.08442 6.61436 9.03448 6.70531 9.00944 6.73831C8.98445 6.77132 8.96362 6.79212 8.94708 6.80029C8.8388 6.84146 8.72618 6.86244 8.60963 6.86244C8.4929 6.86244 8.35136 6.8045 8.18478 6.68872C8.01825 6.57293 7.84542 6.41389 7.66628 6.21133C7.48714 6.00873 7.28511 5.72561 7.0601 5.36192C6.83527 4.99823 6.60199 4.5684 6.3604 4.07243L6.16052 3.71274C6.03556 3.48134 5.86487 3.14441 5.64827 2.70224C5.43153 2.25991 5.23996 1.83203 5.07343 1.4187C5.00686 1.24511 4.90685 1.11295 4.77358 1.02201L4.71104 0.984704C4.66946 0.951697 4.60272 0.916648 4.51116 0.879298C4.41946 0.841991 4.32379 0.815238 4.22374 0.798778L0.799886 0.823447C0.450013 0.823447 0.21262 0.902099 0.0876216 1.05919L0.0375959 1.1335C0.0126049 1.17488 0 1.24099 0 1.33197C0 1.42292 0.024991 1.53453 0.0750167 1.66669C0.574836 2.83236 1.11838 3.95656 1.70564 5.03945C2.29291 6.12234 2.80323 6.99464 3.23631 7.65556C3.66947 8.31696 4.11099 8.94119 4.56087 9.52793C5.01076 10.1149 5.30855 10.491 5.45425 10.6563C5.60012 10.8219 5.7147 10.9456 5.79799 11.0283L6.11045 11.3258C6.31037 11.5243 6.60396 11.7619 6.99135 12.0388C7.37882 12.3158 7.80778 12.5886 8.27845 12.8574C8.7492 13.1259 9.29686 13.3449 9.92172 13.5144C10.5465 13.684 11.1546 13.752 11.7461 13.7192H13.1832C13.4746 13.6942 13.6954 13.6033 13.8455 13.4463L13.8952 13.3842C13.9286 13.3348 13.9599 13.2582 13.9888 13.155C14.0181 13.0517 14.0326 12.9379 14.0326 12.814C14.0241 12.4587 14.0513 12.1384 14.1136 11.8532C14.1759 11.5681 14.2469 11.3532 14.3263 11.2084C14.4057 11.0638 14.4952 10.9418 14.5949 10.8428C14.6947 10.7437 14.7659 10.6836 14.8077 10.6629C14.8491 10.6421 14.8823 10.628 14.9073 10.6196C15.1072 10.5535 15.3425 10.6175 15.6135 10.8119C15.8843 11.0062 16.1383 11.246 16.3758 11.5311C16.6133 11.8165 16.8985 12.1366 17.2317 12.492C17.5651 12.8475 17.8566 13.1118 18.1064 13.2856L18.3562 13.4344C18.523 13.5337 18.7396 13.6246 19.0063 13.7073C19.2724 13.7899 19.5056 13.8106 19.7058 13.7693L22.9046 13.7197C23.221 13.7197 23.4672 13.6678 23.6419 13.5646C23.8168 13.4613 23.9208 13.3475 23.9543 13.2236C23.9877 13.0997 23.9895 12.9591 23.9607 12.8018C23.931 12.645 23.9018 12.5354 23.8728 12.4734Z"/></symbol></svg>