<svg width="73" height="27" viewBox="0 0 73 27" fill="none" xmlns="http://www.w3.org/2000/svg">
<path d="M5.05407 7.726H2.69607C2.10807 7.726 1.59807 7.516 1.16607 7.096C0.74607 6.676 0.53607 6.166 0.53607 5.566V2.56C0.53607 1.972 0.74607 1.468 1.16607 1.048C1.59807 0.615999 2.10807 0.399999 2.69607 0.399999H7.32207V2.668H3.32607C3.18207 2.668 3.05607 2.722 2.94807 2.83C2.85207 2.926 2.80407 3.046 2.80407 3.19V5.476H5.14407C5.74407 5.476 6.25407 5.692 6.67407 6.124C7.10607 6.544 7.32207 7.048 7.32207 7.636V10.642C7.32207 11.242 7.10607 11.752 6.67407 12.172C6.25407 12.592 5.74407 12.802 5.14407 12.802H0.53607V10.552H4.51407C4.61007 10.552 4.70007 10.528 4.78407 10.48C4.86807 10.432 4.93407 10.366 4.98207 10.282C5.03007 10.198 5.05407 10.108 5.05407 10.012V7.726ZM9.8214 0.399999L11.7474 4.324L13.6554 0.399999H15.9954L12.9174 6.7V13H10.5774V6.7L7.4814 0.399999H9.8214ZM16.3966 13V0.399999H18.6646V4.216L20.8606 0.399999H23.4706L19.8346 6.7L23.4706 13H20.8606L18.6646 9.184V13H16.3966ZM23.2695 0.399999H31.2075V2.668H28.3635V13H26.1135V2.668H23.2695V0.399999ZM33.1651 0.399999L35.0911 4.324L36.9991 0.399999H39.3391L36.2611 6.7V13H33.9211V6.7L30.8251 0.399999H33.1651ZM44.7264 13H42.4044L39.0204 0.399999H41.3604L43.5744 8.644L45.7704 0.399999H48.1104L44.7264 13ZM48.6349 13V0.399999H50.9029V4.216L53.0989 0.399999H55.7089L52.0729 6.7L55.7089 13H53.0989L50.9029 9.184V13H48.6349ZM61.4783 0.399999L64.8623 13H62.5223L61.7483 10.084H58.8863L58.1123 13H55.7723L59.1563 0.399999H61.4783ZM59.4983 7.834H61.1363L60.3263 4.756L59.4983 7.834ZM70.678 8.86L72.712 13H70.192L68.212 8.95H67.672V13H65.422V0.399999H67.672H70.03C70.63 0.399999 71.14 0.615999 71.56 1.048C71.992 1.468 72.208 1.972 72.208 2.56V6.79C72.208 7.27 72.064 7.702 71.776 8.086C71.488 8.47 71.122 8.728 70.678 8.86ZM69.94 6.7V2.668H67.672V6.7H69.94ZM12.2574 19.458V21.726H9.59345V27H7.32545V16.56C7.32545 15.972 7.53545 15.468 7.95545 15.048C8.38745 14.616 8.89745 14.4 9.48545 14.4H13.0674V16.65H10.1154C9.97145 16.65 9.84545 16.704 9.73745 16.812C9.64145 16.92 9.59345 17.046 9.59345 17.19V19.458H12.2574ZM18.5667 14.4C19.1547 14.4 19.6587 14.616 20.0787 15.048C20.5107 15.468 20.7267 15.972 20.7267 16.56V24.84C20.7267 25.428 20.5107 25.938 20.0787 26.37C19.6587 26.79 19.1547 27 18.5667 27H15.8127C15.2247 27 14.7147 26.79 14.2827 26.37C13.8627 25.938 13.6527 25.428 13.6527 24.84V16.56C13.6527 15.972 13.8627 15.468 14.2827 15.048C14.7147 14.616 15.2247 14.4 15.8127 14.4H18.5667ZM18.4587 24.732V16.668H15.9207V24.732H18.4587ZM24.0401 27C23.4521 27 22.9421 26.79 22.5101 26.37C22.0901 25.938 21.8801 25.428 21.8801 24.84V14.4H24.1481V24.732H26.6861V14.4H28.9541V27H24.0401ZM30.213 27V14.4H32.463L35.505 19.638V14.4H37.755V27H35.505V24.156L32.463 18.918V27H30.213ZM38.2812 14.4H46.2192V16.668H43.3752V27H41.1252V16.668H38.2812V14.4ZM50.5974 14.4L53.9814 27H51.6414L50.8674 24.084H48.0054L47.2314 27H44.8914L48.2754 14.4H50.5974ZM48.6174 21.834H50.2554L49.4454 18.756L48.6174 21.834ZM56.7911 27H54.5411V14.4H56.7911V27ZM58.0743 27V14.4H60.3243L63.3663 19.638V14.4H65.6163V27H63.3663V24.156L60.3243 18.918V27H58.0743Z" fill="white"/>
</svg>
